# Blender v2.69 (sub 0) OBJ File: 'test.blend'
# www.blender.org
mtllib test_with_normals.mtl
o Cube.001_Cube.002
v -1.458010 -3.046922 2.461986
v -1.736541 -2.556834 -3.511475
v -1.536877 -2.549175 -3.520156
v -1.258346 -3.039263 2.453304
v -1.665504 2.928612 2.961919
v -1.944035 3.418700 -3.011541
v -1.744371 3.426360 -3.020223
v -1.465840 2.936272 2.953238
vn -0.998323 -0.038297 0.043408
vn -0.046422 0.081681 -0.995577
vn 0.998323 0.038297 -0.043408
vn 0.046425 -0.081681 0.995577
vn 0.034582 -0.995922 -0.083322
vn -0.034582 0.995922 0.083322
vn -0.046424 0.081681 -0.995577
vn 0.046421 -0.081681 0.995577
usemtl None
s off
f 5//1 6//1 1//1
f 6//2 7//2 2//2
f 7//3 8//3 3//3
f 8//4 5//4 4//4
f 1//5 2//5 4//5
f 8//6 7//6 5//6
f 6//1 2//1 1//1
f 7//7 3//7 2//7
f 8//3 4//3 3//3
f 5//8 1//8 4//8
f 2//5 3//5 4//5
f 7//6 6//6 5//6
o Cube_Cube.001
v 1.787091 -3.109244 2.380179
v 1.508560 -2.619156 -3.593281
v 1.708225 -2.611496 -3.601963
v 1.986756 -3.101584 2.371498
v 1.579597 2.866291 2.880113
v 1.301066 3.356379 -3.093348
v 1.500731 3.364038 -3.102030
v 1.779262 2.873950 2.871431
vn -0.998323 -0.038297 0.043408
vn -0.046422 0.081681 -0.995577
vn 0.998323 0.038297 -0.043408
vn 0.046423 -0.081681 0.995577
vn 0.034582 -0.995922 -0.083322
vn -0.034582 0.995922 0.083322
vn 0.046422 -0.081681 0.995577
usemtl None
s off
f 13//9 14//9 9//9
f 14//10 15//10 10//10
f 15//11 16//11 11//11
f 16//12 13//12 12//12
f 9//13 10//13 12//13
f 16//14 15//14 13//14
f 14//9 10//9 9//9
f 15//10 11//10 10//10
f 16//11 12//11 11//11
f 13//15 9//15 12//15
f 10//13 11//13 12//13
f 15//14 14//14 13//14
o Icosphere
v 0.044594 -1.810902 0.121810
v 1.356255 -0.808893 1.074776
v -0.456407 -0.808894 1.663756
v -1.576706 -0.808886 0.121810
v -0.456407 -0.808894 -1.420137
v 1.356255 -0.808893 -0.831157
v 0.545594 0.812431 1.663756
v -1.267068 0.812430 1.074776
v -1.267068 0.812430 -0.831157
v 0.545594 0.812431 -1.420137
v 1.665894 0.812423 0.121810
v 0.044594 1.814439 0.121810
v -0.249885 -1.540188 1.028136
v 0.815563 -1.540187 0.681946
v 0.521088 -0.951221 1.588281
v 1.586538 -0.951217 0.121810
v 0.815563 -1.540187 -0.438326
v -0.908381 -1.540183 0.121810
v -1.202867 -0.951218 1.028139
v -0.249885 -1.540188 -0.784517
v -1.202867 -0.951218 -0.784520
v 0.521088 -0.951221 -1.344662
v 1.768548 0.001769 0.681948
v 1.768548 0.001769 -0.438328
v 0.044594 0.001769 1.934480
v 1.110055 0.001769 1.588290
v -1.679361 0.001769 0.681948
v -1.020868 0.001769 1.588290
v -1.020868 0.001769 -1.344671
v -1.679361 0.001769 -0.438328
v 1.110055 0.001769 -1.344671
v 0.044594 0.001769 -1.690861
v 1.292054 0.954755 1.028139
v -0.431901 0.954758 1.588281
v -1.497351 0.954755 0.121810
v -0.431901 0.954758 -1.344662
v 1.292054 0.954755 -0.784520
v 0.339072 1.543725 1.028136
v 0.997568 1.543720 0.121810
v -0.726376 1.543724 0.681946
v -0.726376 1.543724 -0.438326
v 0.339072 1.543725 -0.784517
vn 0.102381 -0.943523 0.315090
vn 0.700224 -0.661699 0.268032
vn -0.268034 -0.943523 0.194736
vn -0.268034 -0.943523 -0.194736
vn 0.102381 -0.943523 -0.315090
vn 0.904989 -0.330385 0.268031
vn 0.024747 -0.330386 0.943521
vn -0.889697 -0.330385 0.315095
vn -0.574602 -0.330387 -0.748783
vn 0.534576 -0.330387 -0.777864
vn 0.802609 -0.125627 0.583126
vn -0.306569 -0.125629 0.943522
vn -0.992077 -0.125628 0.000000
vn -0.306569 -0.125629 -0.943522
vn 0.802609 -0.125627 -0.583126
vn 0.408946 0.661699 0.628425
vn -0.471300 0.661699 0.583122
vn -0.700224 0.661699 -0.268032
vn 0.038530 0.661699 -0.748779
vn 0.724042 0.661695 -0.194736
vn -0.038530 -0.661699 0.748779
vn 0.187594 -0.794658 0.577345
vn 0.471300 -0.661699 0.583122
vn 0.700224 -0.661699 -0.268032
vn 0.607061 -0.794656 0.000000
vn 0.331305 -0.943524 0.000000
vn -0.724042 -0.661695 0.194736
vn -0.491119 -0.794657 0.356821
vn -0.408946 -0.661699 0.628425
vn -0.408946 -0.661699 -0.628425
vn -0.491119 -0.794657 -0.356821
vn -0.724042 -0.661695 -0.194736
vn 0.471300 -0.661699 -0.583122
vn 0.187594 -0.794658 -0.577345
vn -0.038530 -0.661699 -0.748779
vn 0.992077 0.125629 0.000000
vn 0.982246 -0.187599 0.000000
vn 0.904989 -0.330384 -0.268031
vn 0.306569 0.125629 0.943522
vn 0.303531 -0.187597 0.934171
vn 0.534576 -0.330387 0.777864
vn -0.802609 0.125627 0.583126
vn -0.794656 -0.187595 0.577348
vn -0.574602 -0.330387 0.748783
vn -0.802609 0.125627 -0.583126
vn -0.794656 -0.187595 -0.577348
vn -0.889697 -0.330385 -0.315095
vn 0.306569 0.125629 -0.943522
vn 0.303531 -0.187597 -0.934171
vn 0.024746 -0.330386 -0.943521
vn 0.574602 0.330388 0.748783
vn 0.794656 0.187595 0.577348
vn 0.889697 0.330384 0.315095
vn -0.534576 0.330387 0.777864
vn -0.303531 0.187597 0.934171
vn -0.024747 0.330386 0.943521
vn -0.904989 0.330384 -0.268031
vn -0.982246 0.187599 0.000000
vn -0.904989 0.330384 0.268031
vn -0.024747 0.330386 -0.943521
vn -0.303531 0.187597 -0.934171
vn -0.534576 0.330386 -0.777864
vn 0.889697 0.330385 -0.315095
vn 0.794656 0.187595 -0.577348
vn 0.574602 0.330388 -0.748783
vn 0.268034 0.943523 0.194736
vn 0.491119 0.794657 0.356821
vn 0.724042 0.661695 0.194736
vn -0.102381 0.943524 0.315090
vn -0.187594 0.794657 0.577346
vn 0.038530 0.661699 0.748779
vn -0.331305 0.943524 0.000000
vn -0.607061 0.794656 0.000000
vn -0.700224 0.661699 0.268032
vn -0.102381 0.943524 -0.315089
vn -0.187594 0.794658 -0.577346
vn -0.471300 0.661699 -0.583122
vn 0.268034 0.943523 -0.194736
vn 0.491119 0.794658 -0.356821
vn 0.408946 0.661698 -0.628425
usemtl None
s off
f 17//16 30//16 29//16
f 18//17 30//17 32//17
f 17//18 29//18 34//18
f 17//19 34//19 36//19
f 17//20 36//20 33//20
f 18//21 32//21 39//21
f 19//22 31//22 41//22
f 20//23 35//23 43//23
f 21//24 37//24 45//24
f 22//25 38//25 47//25
f 18//26 39//26 42//26
f 19//27 41//27 44//27
f 20//28 43//28 46//28
f 21//29 45//29 48//29
f 22//30 47//30 40//30
f 23//31 49//31 54//31
f 24//32 50//32 56//32
f 25//33 51//33 57//33
f 26//34 52//34 58//34
f 27//35 53//35 55//35
f 29//36 31//36 19//36
f 29//37 30//37 31//37
f 30//38 18//38 31//38
f 32//39 33//39 22//39
f 32//40 30//40 33//40
f 30//41 17//41 33//41
f 34//42 35//42 20//42
f 34//43 29//43 35//43
f 29//44 19//44 35//44
f 36//45 37//45 21//45
f 36//46 34//46 37//46
f 34//47 20//47 37//47
f 33//48 38//48 22//48
f 33//49 36//49 38//49
f 36//50 21//50 38//50
f 39//51 40//51 27//51
f 39//52 32//52 40//52
f 32//53 22//53 40//53
f 41//54 42//54 23//54
f 41//55 31//55 42//55
f 31//56 18//56 42//56
f 43//57 44//57 24//57
f 43//58 35//58 44//58
f 35//59 19//59 44//59
f 45//60 46//60 25//60
f 45//61 37//61 46//61
f 37//62 20//62 46//62
f 47//63 48//63 26//63
f 47//64 38//64 48//64
f 38//65 21//65 48//65
f 42//66 49//66 23//66
f 42//67 39//67 49//67
f 39//68 27//68 49//68
f 44//69 50//69 24//69
f 44//70 41//70 50//70
f 41//71 23//71 50//71
f 46//72 51//72 25//72
f 46//73 43//73 51//73
f 43//74 24//74 51//74
f 48//75 52//75 26//75
f 48//76 45//76 52//76
f 45//77 25//77 52//77
f 40//78 53//78 27//78
f 40//79 47//79 53//79
f 47//80 26//80 53//80
f 54//81 55//81 28//81
f 54//82 49//82 55//82
f 49//83 27//83 55//83
f 56//84 54//84 28//84
f 56//85 50//85 54//85
f 50//86 23//86 54//86
f 57//87 56//87 28//87
f 57//88 51//88 56//88
f 51//89 24//89 56//89
f 58//90 57//90 28//90
f 58//91 52//91 57//91
f 52//92 25//92 57//92
f 55//93 58//93 28//93
f 55//94 53//94 58//94
f 53//95 26//95 58//95
